<?xml version="1.0" encoding="utf-8"?>
<!-- Generator: Adobe Illustrator 14.0.0, SVG Export Plug-In . SVG Version: 6.00 Build 43363)  -->
<!DOCTYPE svg PUBLIC "-//W3C//DTD SVG 1.1//EN" "http://www.w3.org/Graphics/SVG/1.1/DTD/svg11.dtd">
<svg version="1.1" id="Layer_1" xmlns="http://www.w3.org/2000/svg" xmlns:xlink="http://www.w3.org/1999/xlink" x="0px" y="0px"
	 width="458.804px" height="368.816px" viewBox="0 0 458.804 368.816" enable-background="new 0 0 458.804 368.816"
	 xml:space="preserve">
<g>
	<g>
		<path fill="#FFFFFF" d="M114.423,116.546c-4.272-13.271-7.421-27.212-7.421-41.381l9.558-1.8c2.811,9.221,4.16,20.914,4.16,33.51
			c4.385,10.681,9.784,22.6,14.393,35.083c7.31-44.754,26.538-78.602,47.678-78.602c7.759,0,12.819,2.361,16.53,6.41l-5.847,9.222
			c-2.25-3.374-6.41-5.061-11.695-5.061c-17.092,0-36.659,30.474-42.393,80.963c2.698,10.006,3.485,20.351,3.485,30.473
			c0,1.461,0,2.923,0,4.384h-9.671c-0.674-5.171-1.011-10.571-1.011-15.968c0-3.374,0.111-6.635,0.337-9.896
			c-3.711-10.345-8.884-22.038-13.606-34.632c-4.948,31.261-20.353,60.496-49.702,60.496c-21.814,0-31.598-15.293-31.598-31.486
			c0-18.216,12.369-37.558,33.959-37.558c14.056,0,21.59,10.458,21.59,22.941c0,5.958-1.799,12.368-5.397,18.329l-9.445-5.174
			c3.26-5.397,4.834-11.019,4.834-15.742c0-7.984-4.273-13.832-12.369-13.832c-13.943,0-23.164,16.532-23.164,31.599
			c0,12.593,6.522,24.177,22.152,24.177C94.296,183.003,111.162,150.729,114.423,116.546z"/>
		<path fill="#FFFFFF" d="M192.587,138.923c-2.587,6.745-7.647,11.468-13.045,13.38c-3.823,8.209-9.558,13.045-16.754,13.045
			c-7.758,0-11.132-8.097-11.132-18.329c0-6.3,1.237-13.383,3.487-20.016l4.046,1.01c1.237-8.658,5.96-16.19,13.945-16.19
			c7.534,0,11.469,8.658,11.469,18.777c0,5.51-1.35,11.245-2.811,16.193c2.924-1.352,5.623-4.161,7.646-9.445
			C190.113,137.349,192.587,138.246,192.587,138.923z M169.311,152.416c-4.723-1.8-7.758-6.296-9.334-11.696
			c-0.224,1.687-0.337,3.374-0.337,4.835c0,6.635,1.8,11.245,4.611,11.245c0.337,0,0.561,0,0.898-0.113
			C166.612,156.239,167.96,154.665,169.311,152.416z M164.812,134.311c0,6.074,1.8,11.922,6.859,13.383
			c2.474-5.961,4.162-13.832,4.162-19.793c0-5.058-1.237-8.881-4.386-8.881c-0.226,0-0.562,0.11-0.787,0.11
			C167.399,119.807,164.812,127.114,164.812,134.311z"/>
		<path fill="#FFFFFF" d="M183.707,164.223c0,0,1.013-10.232,4.161-18.667c2.249-12.706,4.161-24.064,5.51-32.609h9.671
			l-1.461,8.435c3.373-5.735,7.534-9.67,12.144-9.67c4.385,0,6.185,3.483,6.185,7.758c0,0.674-0.113,1.461-0.113,2.361
			c3.598-6.297,8.209-10.119,13.382-10.119c5.734,0,7.984,5.284,7.984,12.706c0,17.203-12.482,42.728-12.482,58.695
			c0,12.484,6.859,19.342,14.955,19.342c9.896,0,15.406-7.871,15.406-16.08c0-4.497-1.687-9.22-5.285-12.594l7.31-7.31
			c5.06,4.61,7.421,11.02,7.421,17.319c0,12.142-8.771,24.287-24.962,24.287c-14.394,0-25.414-8.771-25.414-24.064
			c0-21.251,12.819-44.08,12.819-58.922c0-2.7-0.561-5.284-2.922-5.284c-2.812,0-7.422,5.397-11.134,21.812
			c-1.686,9.11-3.598,18.329-4.609,22.603h-10.234c2.7-12.371,7.873-36.432,7.873-41.267c0-1.8-0.563-2.361-1.463-2.361
			c-3.598,0-8.321,8.771-11.356,24.848l-3.598,18.78H183.707z"/>
	</g>
	<g>
		<path fill="#FFFFFF" d="M56.706,195.19h7.351c-0.372,7.907-3.722,26.98-7.723,42.426c-1.767,9.951-2.511,15.815-2.511,18.884
			c0,1.956,0.279,2.7,0.93,2.7c2.14,0,4.93-5.305,7.908-13.026c0.558,0,2.605,0.744,2.605,1.303
			c-5.676,14.887-10.979,21.397-15.258,21.397c-2.978,0-4.652-2.697-4.652-9.115c0-0.281,0-0.653,0-1.022
			c-2.14,5.675-5.396,10.604-10.699,10.604c-4.56,0-6.42-5.119-6.42-11.818c0-13.118,7.072-32.466,15.91-32.466
			c3.442,0,5.396,2.044,6.048,6.229L56.706,195.19z M36.052,256.595c0,2.883,0.558,4.839,1.861,4.839
			c4.279,0,9.583-15.168,9.583-23.817c0-3.444-0.837-5.864-2.885-5.864C40.611,231.753,36.052,248.221,36.052,256.595z"/>
		<path fill="#FFFFFF" d="M89.273,246.174c0.558,0,2.605,0.744,2.605,1.303c-4.652,12.188-9.305,21.864-18.422,21.864
			c-8.095,0-11.443-7.444-11.443-16.19c0-12.651,6.977-28.094,17.397-28.094c4.652,0,6.979,3.347,6.979,7.627
			c0,6.604-5.583,15.537-16.561,17.307c0,0.464,0,0.927,0,1.394c0,5.583,1.582,10.049,5.862,10.049
			C81.178,261.434,85.738,255.665,89.273,246.174z M70.107,246.451c6.977-3.441,10.047-9.86,10.047-13.304
			c0-1.395-0.557-2.325-1.487-2.325C74.853,230.823,71.224,238.73,70.107,246.451z"/>
	</g>
	<g>
		<path fill="#FFFFFF" d="M159.51,193.265c-7.534,13.271-9.332,34.748-12.032,55.099c15.293-2.022,25.527-19.338,25.527-36.093
			c0-16.532-10.008-32.725-34.972-32.725c-25.751,0-37.67,19.567-37.67,36.322c0,12.706,6.859,23.838,19.566,23.838
			c1.687,0,3.261-0.223,4.722-0.561l1.8,9.67c-2.137,0.787-4.498,1.126-6.972,1.126c-18.44,0-28.336-15.07-28.336-31.825
			c0-20.803,15.293-44.189,48.241-44.189c30.811,0,43.854,19.003,43.854,38.454c0,20.242-14.056,40.932-36.657,41.832
			c-3.599,24.738-9.558,46.328-30.137,46.328c-13.043,0-20.24-7.532-20.24-19.003c0-9.109,6.297-18.103,17.653-18.554v9.222
			c-5.847,0.674-9.558,6.296-9.558,11.467c0,7.31,5.511,11.358,11.808,11.358c28.899,0,14.506-70.953,33.172-105.25L159.51,193.265z
			"/>
		<path fill="#FFFFFF" d="M209.334,247.467c0.563,0,2.7,0.897,2.7,1.461c0,0.113,0,0.113,0,0.113
			c-6.635,17.99-11.808,26.425-19.117,26.425c-6.747,0-9.445-6.635-9.445-18.329c0-8.209,1.35-19.006,3.598-31.825
			c5.06-28.222,12.145-40.928,18.666-40.928c5.848,0,7.535,4.723,7.535,10.455c0,6.635-2.25,14.619-3.374,18.106
			c-4.609,14.729-12.145,25.751-16.642,31.261c-0.563,4.835-0.9,9.219-0.9,12.819c0,7.532,1.687,9.893,4.272,9.893
			C200.226,266.918,204.5,259.948,209.334,247.467z M207.199,191.917c-3.037,0-9.671,24.29-12.932,45.205
			c5.623-10.235,13.943-29.012,14.056-42.731C208.323,192.817,207.76,191.917,207.199,191.917z"/>
		<path fill="#FFFFFF" d="M224.067,223.064c0,0-2.248,9.332-5.06,23.726c-1.237,6.3-2.25,11.583-2.25,16.08
			c0,3.261,1.237,3.826,2.25,3.826c1.798,0,5.173-6.635,7.534-16.419l0.674-3.709c1.687-9.558,3.824-17.88,5.172-23.503h9.558
			c-3.936,17.542-7.197,30.586-7.197,39.806c0,3.261,1.237,3.826,2.25,3.826c2.922,0,6.634-6.3,11.582-19.229
			c0.562,0,3.148,0.787,3.148,1.461v0.113c-4.948,12.819-8.884,25.861-18.104,25.861c-4.947,0-7.197-3.71-7.871-9.219
			c-2.474,5.509-5.735,9.219-10.121,9.219c-5.959,0-7.983-5.396-7.983-12.932c0-4.609,0.787-10.006,1.8-15.403
			c2.811-14.619,5.06-23.503,5.06-23.503H224.067z"/>
		<path fill="#FFFFFF" d="M242.964,274.341c0,0,1.013-10.232,4.161-18.667c2.248-12.707,4.16-24.064,5.509-32.609h9.671
			l-1.463,8.436c3.374-5.735,7.534-9.671,12.145-9.671c4.385,0,6.185,3.484,6.185,7.758c0,0.787-0.113,1.8-0.226,2.81
			c3.936-6.519,8.771-10.567,14.058-10.567c3.936,0,6.522,2.584,6.522,7.983c0,10.458-7.31,23.838-7.31,33.058
			c0,3.261,1.236,3.826,2.246,3.826c2.925,0,6.638-6.3,11.583-19.229c0.674,0,3.148,0.897,3.148,1.574
			c-4.945,12.819-10.009,25.861-19.229,25.861c-3.935,0-7.645-3.148-7.645-10.006c0-12.145,7.31-24.625,7.31-32.722
			c0-1.238-0.562-2.248-1.8-2.248c-2.813,0-7.871,5.396-11.695,21.925c-1.687,9.109-3.599,18.329-4.61,22.49h-10.233
			c2.698-12.371,7.872-36.432,7.872-41.267c0-1.8-0.562-2.361-1.463-2.361c-3.598,0-8.321,8.771-11.356,24.848l-3.599,18.78H242.964
			z"/>
		<path fill="#FFFFFF" d="M373.745,216.881c17.542,0,25.638,11.132,25.638,22.938c0,13.719-10.793,28.451-30.696,28.451
			c-10.232,0-17.654-4.5-22.264-10.122l5.397-5.397c4.722,6.297,9.667,8.771,16.977,8.771c14.732,0,21.928-10.906,21.928-21.142
			c0-9.219-5.735-17.877-16.98-17.877c-28.109,0-26.987,52.963-54.65,52.963c-9.781,0-13.829-8.997-13.829-19.567
			c0-15.293,8.436-33.958,21.029-33.958c5.619,0,8.432,4.045,8.432,9.219c0,8.097-6.858,18.89-20.238,21.029
			c-0.226,1.796-0.339,3.484-0.339,5.058c0,7.086,1.913,12.706,6.971,12.706C334.274,269.954,340.01,216.881,373.745,216.881z
			 M315.049,247.803c8.432-4.161,12.142-11.919,12.142-16.08c0-1.687-0.671-2.81-1.797-2.81
			C321.01,228.913,316.849,238.132,315.049,247.803z"/>
	</g>
	<path fill="#FFFFFF" d="M314.085,185.474c-0.293,0.195-2.148,5.458-5.275,13.384c-2.48,6.281-5.22,7.52-11.8,8.813
		c-5.885,1.162-9.113,3.905-10.229,4.765c-1.117,0.86-2.404,0.476-1.431-0.839c1.4-1.892,9.955-10.162,13.213-13.365
		c0.378,0.064,0.778-0.021,1.098-0.284c0.574-0.479,0.653-1.333,0.174-1.913c-0.369-0.439-1.187-0.677-1.687-0.223
		c-0.506,0.458-8.173,7.816-8.917,8.533c8.722-10.62,12.846-15.547,19.667-23.643L314.085,185.474z M422.745,64.485
		c-61.222,58.205-77.284,72.906-112.645,114.786l5.18,4.866c4.68-1.602,9.292,2.84,16.397-1.895
		c9.851-6.565,93.605-112.004,95.271-114.12C429.579,64.775,426.32,61.058,422.745,64.485z M241.455,206.609
		c-0.491,0.409-1.803,0.955-1.974,1.052c-3.281,1.785-3.459,3.322-3.4,4.063c0.211,2.032,3.094,3.713,13.574,3.078
		c4.328-0.363,8.528-1.128,12.441-1.769c3.913-0.662,8.774-1.267,10.635-1.267c5.67,0,6.121,1.605,10.391,1.605
		c0.386,0,0.67-0.085,0.67-0.506c0-0.424-0.414-0.506-0.646-0.513c-3.607,0-4.513-2.328-10.435-2.315
		c-3.24-0.027-4.263-0.083-13.128,1.156c-8.867,1.242-19.435,1.767-19.435-0.04c0-1.034,7.325-2.978,7.325-5.97
		c0-1.593-2.022-3.862-12.711-1.95c-0.947,0.18-2.173,0.787-2.096,2.148c0.067,1.227,1.068,2.218,2.874,1.727
		c0.667-0.159,4.447-0.833,5.702-0.842C241.49,206.268,241.574,206.512,241.455,206.609z"/>
</g>
</svg>
