<?xml version="1.0" encoding="utf-8"?>
<!-- Generator: Adobe Illustrator 14.0.0, SVG Export Plug-In . SVG Version: 6.00 Build 43363)  -->
<!DOCTYPE svg PUBLIC "-//W3C//DTD SVG 1.1//EN" "http://www.w3.org/Graphics/SVG/1.1/DTD/svg11.dtd">
<svg version="1.1" id="Layer_1" xmlns="http://www.w3.org/2000/svg" xmlns:xlink="http://www.w3.org/1999/xlink" x="0px" y="0px"
	 width="458.804px" height="368.816px" viewBox="0 0 458.804 368.816" enable-background="new 0 0 458.804 368.816"
	 xml:space="preserve">
<g>
	<g>
		<path fill="#EF4B7E" d="M118.786,123.37c-4.128-12.826-7.17-26.3-7.17-39.993l9.237-1.74c2.715,8.912,4.019,20.212,4.019,32.386
			c4.24,10.322,9.458,21.842,13.91,33.906c7.064-43.252,25.651-75.965,46.08-75.965c7.498,0,12.389,2.282,15.978,6.195l-5.652,8.913
			c-2.173-3.261-6.194-4.891-11.301-4.891c-16.52,0-35.431,29.451-40.971,78.247c2.606,9.671,3.367,19.669,3.367,29.451
			c0,1.413,0,2.825,0,4.237h-9.347c-0.651-4.998-0.979-10.216-0.979-15.432c0-3.261,0.109-6.413,0.327-9.564
			c-3.588-9.998-8.586-21.299-13.15-33.47c-4.782,30.212-19.668,58.466-48.035,58.466c-21.084,0-30.536-14.78-30.536-30.431
			c0-17.604,11.953-36.297,32.818-36.297c13.583,0,20.865,10.107,20.865,22.171c0,5.758-1.739,11.953-5.215,17.714l-9.128-5
			c3.152-5.216,4.673-10.649,4.673-15.213c0-7.716-4.131-13.368-11.956-13.368c-13.477,0-22.387,15.977-22.387,30.539
			c0,12.171,6.304,23.366,21.411,23.366C99.335,187.597,115.637,156.406,118.786,123.37z"/>
		<path fill="#EF4B7E" d="M194.329,144.996c-2.5,6.519-7.389,11.083-12.607,12.932c-3.694,7.934-9.237,12.607-16.193,12.607
			c-7.498,0-10.758-7.825-10.758-17.714c0-6.089,1.194-12.935,3.37-19.345l3.909,0.976c1.197-8.367,5.761-15.647,13.48-15.647
			c7.28,0,11.083,8.368,11.083,18.147c0,5.325-1.306,10.868-2.715,15.65c2.824-1.306,5.431-4.022,7.389-9.128
			C191.938,143.475,194.329,144.342,194.329,144.996z M171.833,158.037c-4.564-1.739-7.498-6.085-9.022-11.304
			c-0.215,1.631-0.324,3.261-0.324,4.673c0,6.413,1.739,10.868,4.458,10.868c0.324,0,0.542,0,0.867-0.109
			C169.226,161.731,170.529,160.21,171.833,158.037z M167.487,140.538c0,5.87,1.739,11.522,6.628,12.935
			c2.391-5.761,4.021-13.368,4.021-19.129c0-4.889-1.197-8.583-4.24-8.583c-0.218,0-0.542,0.106-0.761,0.106
			C169.987,126.521,167.487,133.583,167.487,140.538z"/>
		<path fill="#EF4B7E" d="M185.746,169.447c0,0,0.979-9.889,4.021-18.041c2.173-12.28,4.021-23.256,5.325-31.515h9.346l-1.412,8.152
			c3.261-5.543,7.282-9.346,11.734-9.346c4.24,0,5.979,3.367,5.979,7.498c0,0.651-0.109,1.412-0.109,2.282
			c3.476-6.085,7.934-9.78,12.935-9.78c5.54,0,7.713,5.106,7.713,12.28c0,16.626-12.062,41.295-12.062,56.727
			c0,12.065,6.631,18.693,14.453,18.693c9.564,0,14.889-7.607,14.889-15.541c0-4.346-1.63-8.91-5.109-12.171l7.064-7.064
			c4.891,4.455,7.173,10.649,7.173,16.738c0,11.734-8.477,23.472-24.126,23.472c-13.911,0-24.56-8.477-24.56-23.256
			c0-20.539,12.389-42.601,12.389-56.945c0-2.609-0.542-5.106-2.825-5.106c-2.718,0-7.173,5.216-10.761,21.081
			c-1.627,8.804-3.476,17.714-4.452,21.844h-9.892c2.609-11.956,7.609-35.209,7.609-39.882c0-1.74-0.545-2.282-1.415-2.282
			c-3.479,0-8.043,8.477-10.974,24.015l-3.479,18.15H185.746z"/>
	</g>
	<g>
		<path fill="#EF4B7E" d="M63.005,199.376h7.103c-0.359,7.642-3.597,26.075-7.462,41.003c-1.707,9.617-2.426,15.284-2.426,18.25
			c0,1.89,0.271,2.609,0.899,2.609c2.066,0,4.764-5.127,7.642-12.589c0.54,0,2.518,0.719,2.518,1.259
			c-5.487,14.388-10.611,20.68-14.745,20.68c-2.877,0-4.499-2.606-4.499-8.81c0-0.271,0-0.631,0-0.988
			c-2.067,5.484-5.213,10.249-10.337,10.249c-4.408,0-6.207-4.947-6.207-11.422c0-12.678,6.834-31.377,15.376-31.377
			c3.326,0,5.215,1.976,5.843,6.021L63.005,199.376z M43.045,258.721c0,2.786,0.54,4.676,1.798,4.676
			c4.137,0,9.261-14.659,9.261-23.018c0-3.329-0.808-5.667-2.79-5.667C47.453,234.712,43.045,250.627,43.045,258.721z"/>
		<path fill="#EF4B7E" d="M94.479,248.649c0.542,0,2.518,0.719,2.518,1.259c-4.493,11.778-8.993,21.131-17.802,21.131
			c-7.825,0-11.059-7.194-11.059-15.647c0-12.227,6.743-27.151,16.814-27.151c4.493,0,6.743,3.234,6.743,7.371
			c0,6.383-5.396,15.016-16.006,16.726c0,0.448,0,0.896,0,1.347c0,5.396,1.53,9.712,5.667,9.712
			C86.657,263.396,91.065,257.821,94.479,248.649z M75.958,248.917c6.743-3.325,9.712-9.529,9.712-12.857
			c0-1.348-0.54-2.247-1.439-2.247C80.545,233.812,77.037,241.455,75.958,248.917z"/>
	</g>
	<g>
		<path fill="#EF4B7E" d="M162.362,197.516c-7.282,12.825-9.022,33.582-11.628,53.25c14.777-1.955,24.669-18.689,24.669-34.882
			c0-15.978-9.674-31.627-33.797-31.627c-24.89,0-36.406,18.911-36.406,35.103c0,12.28,6.628,23.039,18.908,23.039
			c1.63,0,3.152-0.215,4.564-0.542l1.74,9.346c-2.067,0.761-4.349,1.088-6.737,1.088c-17.823,0-27.387-14.565-27.387-30.757
			c0-20.105,14.78-42.707,46.623-42.707c29.778,0,42.383,18.365,42.383,37.164c0,19.562-13.583,39.558-35.428,40.428
			c-3.476,23.908-9.237,44.774-29.127,44.774c-12.604,0-19.56-7.28-19.56-18.366c0-8.804,6.085-17.495,17.06-17.932v8.913
			c-5.649,0.651-9.234,6.085-9.234,11.083c0,7.064,5.325,10.977,11.41,10.977c27.93,0,14.02-68.573,32.061-101.719L162.362,197.516z
			"/>
		<path fill="#EF4B7E" d="M210.515,249.899c0.542,0,2.606,0.867,2.606,1.413c0,0.109,0,0.109,0,0.109
			c-6.41,17.387-11.41,25.539-18.475,25.539c-6.521,0-9.128-6.413-9.128-17.714c0-7.934,1.303-18.368,3.479-30.757
			c4.888-27.275,11.734-39.556,18.038-39.556c5.652,0,7.282,4.564,7.282,10.104c0,6.413-2.176,14.129-3.261,17.499
			c-4.455,14.235-11.737,24.887-16.083,30.212c-0.545,4.673-0.87,8.91-0.87,12.389c0,7.28,1.63,9.562,4.128,9.562
			C201.711,268.698,205.842,261.961,210.515,249.899z M208.451,196.212c-2.937,0-9.346,23.475-12.501,43.689
			c5.437-9.892,13.477-28.039,13.586-41.298C209.536,197.082,208.994,196.212,208.451,196.212z"/>
		<path fill="#EF4B7E" d="M224.753,226.315c0,0-2.173,9.019-4.892,22.93c-1.194,6.088-2.173,11.195-2.173,15.541
			c0,3.152,1.194,3.697,2.173,3.697c1.74,0,5-6.413,7.283-15.868l0.651-3.585c1.631-9.237,3.694-17.28,4.998-22.714h9.24
			c-3.803,16.953-6.958,29.561-6.958,38.47c0,3.152,1.197,3.697,2.176,3.697c2.825,0,6.41-6.088,11.192-18.583
			c0.542,0,3.043,0.761,3.043,1.413v0.109c-4.782,12.389-8.586,24.993-17.496,24.993c-4.782,0-6.956-3.585-7.607-8.91
			c-2.391,5.325-5.543,8.91-9.783,8.91c-5.758,0-7.713-5.215-7.713-12.498c0-4.455,0.761-9.67,1.74-14.886
			c2.715-14.128,4.888-22.714,4.888-22.714H224.753z"/>
		<path fill="#EF4B7E" d="M243.015,275.871c0,0,0.979-9.889,4.021-18.041c2.173-12.28,4.019-23.257,5.325-31.515h9.346l-1.412,8.152
			c3.261-5.543,7.28-9.346,11.734-9.346c4.24,0,5.979,3.367,5.979,7.498c0,0.761-0.109,1.74-0.218,2.715
			c3.804-6.301,8.477-10.213,13.586-10.213c3.804,0,6.304,2.497,6.304,7.716c0,10.107-7.064,23.039-7.064,31.948
			c0,3.152,1.194,3.697,2.17,3.697c2.827,0,6.416-6.088,11.195-18.583c0.651,0,3.042,0.867,3.042,1.521
			c-4.779,12.389-9.673,24.993-18.583,24.993c-3.803,0-7.389-3.042-7.389-9.67c0-11.737,7.064-23.799,7.064-31.624
			c0-1.197-0.542-2.173-1.739-2.173c-2.719,0-7.607,5.216-11.304,21.19c-1.627,8.804-3.476,17.714-4.452,21.735h-9.892
			c2.609-11.956,7.61-35.209,7.61-39.882c0-1.74-0.546-2.282-1.416-2.282c-3.479,0-8.043,8.477-10.974,24.015l-3.479,18.15H243.015z
			"/>
		<path fill="#EF4B7E" d="M369.409,220.339c16.953,0,24.778,10.758,24.778,22.169c0,13.259-10.431,27.496-29.666,27.496
			c-9.889,0-17.062-4.349-21.518-9.783l5.216-5.215c4.564,6.085,9.343,8.477,16.408,8.477c14.238,0,21.193-10.541,21.193-20.433
			c0-8.91-5.543-17.277-16.411-17.277c-27.167,0-26.082,51.187-52.817,51.187c-9.453,0-13.365-8.694-13.365-18.911
			c0-14.78,8.152-32.818,20.323-32.818c5.431,0,8.149,3.91,8.149,8.91c0,7.825-6.628,18.256-19.56,20.323
			c-0.218,1.737-0.327,3.367-0.327,4.889c0,6.849,1.849,12.28,6.737,12.28C331.263,271.631,336.806,220.339,369.409,220.339z
			 M312.682,250.224c8.149-4.022,11.734-11.52,11.734-15.541c0-1.63-0.648-2.716-1.736-2.716
			C318.443,231.967,314.421,240.877,312.682,250.224z"/>
	</g>
	<path fill="#EF4B7E" d="M311.75,189.985c-0.283,0.188-2.076,5.274-5.098,12.935c-2.397,6.07-5.045,7.268-11.404,8.518
		c-5.688,1.124-8.807,3.774-9.886,4.605s-2.323,0.46-1.383-0.811c1.354-1.828,9.621-9.821,12.77-12.917
		c0.366,0.062,0.752-0.021,1.062-0.274c0.554-0.463,0.631-1.288,0.168-1.849c-0.357-0.424-1.147-0.654-1.63-0.215
		c-0.49,0.442-7.899,7.554-8.618,8.246c8.429-10.263,12.416-15.024,19.008-22.85L311.75,189.985z M416.765,73.056
		c-59.167,56.252-74.691,70.46-108.865,110.936l5.006,4.703c4.522-1.548,8.98,2.745,15.847-1.831
		c9.521-6.345,90.465-108.246,92.075-110.291C423.37,73.336,420.221,69.743,416.765,73.056z M241.556,210.412
		c-0.472,0.395-1.74,0.923-1.905,1.017c-3.172,1.725-3.343,3.211-3.287,3.927c0.203,1.963,2.989,3.588,13.117,2.975
		c4.184-0.351,8.244-1.091,12.023-1.71c3.783-0.64,8.479-1.224,10.278-1.224c5.481,0,5.917,1.551,10.042,1.551
		c0.375,0,0.649-0.083,0.649-0.489c0-0.41-0.401-0.49-0.625-0.496c-3.485,0-4.361-2.25-10.083-2.238
		c-3.131-0.026-4.122-0.08-12.69,1.117c-8.568,1.2-18.781,1.707-18.781-0.038c0-1,7.079-2.878,7.079-5.77
		c0-1.539-1.955-3.733-12.286-1.884c-0.914,0.174-2.099,0.761-2.022,2.076c0.065,1.185,1.032,2.143,2.777,1.668
		c0.643-0.153,4.296-0.805,5.507-0.813C241.591,210.082,241.673,210.317,241.556,210.412z"/>
</g>
</svg>
